<?xml version="1.0" encoding="UTF-8" standalone="no"?>
<!-- Created with Inkscape (http://www.inkscape.org/) -->

<svg
   width="210mm"
   height="297mm"
   viewBox="0 0 210 297"
   version="1.1"
   id="svg1"
   xmlns="http://www.w3.org/2000/svg"
   xmlns:svg="http://www.w3.org/2000/svg">
  <defs
     id="defs1" />
  <g
     id="layer1">
    <path
       id="path3"
       style="font-weight:bold;font-size:53.6633px;font-family:Ubuntu;-inkscape-font-specification:'Ubuntu Bold';fill:#e5e1da;fill-opacity:1;stroke-width:0.2"
       d="M 73.078871,56.453109 V 93.05148 c -1.71723,0.357755 -3.55967,0.608184 -5.52732,0.751286 -1.96765,0.178877 -3.72065,0.268316 -5.259,0.268316 -5.47365,0 -9.6415,-0.983827 -12.50355,-2.951481 -2.89782,-1.967655 -4.34673,-5.080126 -4.34673,-9.337414 0,-2.933594 0.66185,-5.330555 1.98555,-7.190882 1.32369,-1.824553 3.27346,-3.166135 5.8493,-4.024748 2.54006,-0.822837 5.63464,-1.234256 9.28375,-1.234256 h 3.16613 V 56.453109 Z m -7.35187,19.157798 h -3.05881 c -2.07498,0 -3.82798,0.178878 -5.259,0.536633 -1.4668,0.357755 -2.55795,0.983827 -3.27346,1.878216 -0.75129,0.894388 -1.12693,2.164419 -1.12693,3.810094 0,1.574123 0.37564,2.790491 1.12693,3.649104 0.75129,0.858613 1.80666,1.44891 3.16613,1.770889 1.3237,0.357755 2.84416,0.536633 4.56138,0.536633 0.75129,0 1.4668,-0.03577 2.14654,-0.107326 0.67973,-0.03577 1.25214,-0.07155 1.71722,-0.107327 z m 10.82276,18.524271 V 57.536807 c 1.71723,-0.357755 3.55967,-0.608184 5.52732,-0.751286 1.96766,-0.178877 3.72066,-0.268316 5.25901,-0.268316 5.47365,0 9.6415,0.983827 12.50355,2.951481 2.897809,1.967655 4.346719,5.080126 4.346719,9.337414 0,2.933594 -0.66185,5.330555 -1.98554,7.190882 -1.32369,1.824553 -3.273459,3.166135 -5.849299,4.024748 -2.54006,0.822837 -5.63464,1.234256 -9.28375,1.234256 h -3.16613 v 12.879192 z m 7.35188,-19.157798 h 3.0588 c 2.07499,0 3.82799,-0.178878 5.25901,-0.536633 1.46679,-0.357755 2.55795,-0.983827 3.27346,-1.878216 0.75129,-0.894388 1.12693,-2.164419 1.12693,-3.810094 0,-1.574123 -0.37564,-2.790491 -1.12693,-3.649104 -0.75129,-0.858613 -1.80667,-1.44891 -3.16614,-1.770889 -1.32369,-0.357755 -2.84415,-0.536633 -4.56138,-0.536633 -0.75129,0 -1.4668,0.03578 -2.14653,0.107326 -0.67973,0.03577 -1.25214,0.07155 -1.71722,0.107327 z" />
    <path
       id="rect11"
       style="fill:#aad7d9;stroke-width:0.208923"
       d="m 80.355501,74.98207 h 3.564 l -0.0183,19.188903 h -3.564 z m 15.84385,19.135451 v -10.08162 c 0.47357,-0.132827 1.08526,-0.265653 1.83508,-0.39848 0.76297,-0.132827 1.58515,-0.19924 2.466519,-0.19924 1.15761,0 2.05213,0.205883 2.68356,0.61765 0.64459,0.39848 1.09185,0.956353 1.34179,1.67362 0.26309,0.717273 0.39464,1.55409 0.39464,2.51045 v 5.87762 h -2.56518 v -5.51899 c 0,-0.703987 -0.0658,-1.268503 -0.19732,-1.69355 -0.11839,-0.438333 -0.32229,-0.75048 -0.61169,-0.93644 -0.28941,-0.19924 -0.6972,-0.29886 -1.22339,-0.29886 -0.30256,0 -0.598539,0.01993 -0.887949,0.0598 -0.27625,0.0266 -0.49988,0.05317 -0.6709,0.0797 v 8.30837 z M 48.847031,56.452885 c -0.88137,0 -1.70355,0.06664 -2.46652,0.199471 -0.74982,0.132828 -1.36146,0.265598 -1.83503,0.398425 v 4.468978 0.810803 0.165882 h 0.003 c 0.0145,0.88695 0.14357,1.669431 0.39119,2.344559 0.24994,0.717269 0.69745,1.275317 1.34204,1.6738 0.63143,0.411766 1.52595,0.617533 2.68356,0.617533 0.88137,0 1.70355,-0.06613 2.46652,-0.198954 0.7498,-0.132828 1.36146,-0.265598 1.83503,-0.398425 v -4.038513 -0.976685 -0.2651 c 0,-0.956358 -0.13172,-1.793173 -0.39481,-2.510441 -0.24994,-0.717268 -0.69693,-1.2748 -1.34152,-1.673283 -0.63143,-0.411766 -1.52595,-0.61805 -2.68356,-0.61805 z m -0.17777,2.231905 c 0.52619,0 0.93429,0.09945 1.2237,0.29869 0.2894,0.185959 0.49294,0.498046 0.61133,0.936377 0.13152,0.425046 0.19741,0.98945 0.19741,1.693436 v 0.883151 2.264978 c -0.17102,0.02657 -0.39451,0.05301 -0.67076,0.07958 -0.28941,0.03985 -0.58524,0.05994 -0.8878,0.05994 -0.52619,0 -0.93429,-0.09945 -1.2237,-0.29869 -0.2894,-0.185959 -0.49294,-0.498046 -0.61133,-0.936377 -0.13152,-0.425045 -0.19741,-0.989968 -0.19741,-1.693953 V 61.519753 58.82431 c 0.17102,-0.02657 0.39451,-0.05353 0.67076,-0.0801 0.28941,-0.03985 0.58524,-0.05943 0.8878,-0.05943 z m 6.40031,8.44766 V 57.050834 c 0.47357,-0.132828 1.08526,-0.265656 1.83508,-0.398483 0.76297,-0.132828 1.58515,-0.199242 2.46652,-0.199242 1.15761,0 2.05213,0.205883 2.68356,0.617649 0.64459,0.398483 1.09185,0.956358 1.34179,1.673627 0.26309,0.71727 0.39464,1.554084 0.39464,2.510443 v 5.877622 h -2.56518 v -5.518987 c 0,-0.703987 -0.0658,-1.268504 -0.19732,-1.693552 -0.11839,-0.438331 -0.32229,-0.750477 -0.61169,-0.936436 -0.28941,-0.199241 -0.6972,-0.298861 -1.22339,-0.298861 -0.30256,0 -0.59854,0.01992 -0.88795,0.05977 -0.27625,0.02657 -0.49988,0.05313 -0.6709,0.0797 v 8.308368 z m 35.02574,16.305801 c -1.15761,0 -2.05213,0.20577 -2.68356,0.61753 -0.64459,0.39848 -1.09209,0.95653 -1.34203,1.6738 -0.0675,0.184 -0.12604,0.37594 -0.17622,0.57568 h 2.81275 c 0.0967,-0.13836 0.21042,-0.25166 0.34313,-0.33693 0.28941,-0.19924 0.69699,-0.29869 1.22318,-0.29869 0.30256,0 0.59891,0.0201 0.88832,0.0599 0.27625,0.0266 0.49974,0.053 0.67076,0.0796 v 1.84226 c -0.73213,-0.0706 -1.62281,-0.10645 -2.2655,-0.10645 -1.1576,0 -2.05212,0.20577 -2.68355,0.61753 -0.64459,0.39848 -1.11419,0.94064 -1.34204,1.6738 -0.22785,0.73316 -0.17714,1.688716 0,2.360166 0.17714,0.67145 0.69745,1.2748 1.34204,1.67328 0.63143,0.41177 1.52595,0.61805 2.68355,0.61805 0.88137,0 2.23272,-0.0666 2.99569,-0.19947 0.62054,-0.10992 1.14066,-0.21977 1.57199,-0.32969 h 0.26304 v -0.0687 -4.408106 -1.40767 -4.03799 c -0.47357,-0.13283 -1.08521,-0.26612 -1.83503,-0.39894 -0.76297,-0.13283 -1.58515,-0.19896 -2.46652,-0.19896 z m -0.35192,6.33811 c 0.30256,0 0.59891,0.0201 0.88832,0.0599 0.27625,0.0266 1.02891,0.053 1.19993,0.0796 v 2.201006 c -0.17102,0.0266 -0.92368,0.053 -1.19993,0.0796 -0.28941,0.0399 -0.58576,0.0594 -0.88832,0.0594 -0.52618,0 -0.93377,-0.0995 -1.22318,-0.29869 -0.24786,-0.15927 -0.555,-0.582964 -0.555,-0.948374 0,-0.36541 0.30723,-0.774062 0.555,-0.933272 0.28941,-0.19924 0.697,-0.2992 1.22318,-0.2992 z" />
    <rect
       style="fill:#92c7cf;fill-opacity:1;stroke-width:0.2"
       id="rect12"
       width="19.596954"
       height="19.596954"
       x="19.243626"
       y="24.614494" />
    <rect
       style="fill:#aad7d9;fill-opacity:1;stroke-width:0.2"
       id="rect12-3"
       width="19.596954"
       height="19.596954"
       x="48.360161"
       y="24.614494" />
    <rect
       style="fill:#fbf9f1;fill-opacity:1;stroke-width:0.2"
       id="rect12-3-0"
       width="19.596954"
       height="19.596954"
       x="74.814316"
       y="24.614494" />
    <rect
       style="fill:#e5e1da;fill-opacity:1;stroke-width:0.2"
       id="rect12-3-0-3"
       width="19.596954"
       height="19.596954"
       x="103.75743"
       y="24.870832" />
  </g>
</svg>
