<?xml version="1.0" encoding="UTF-8" standalone="no"?>
<!-- Created with Inkscape (http://www.inkscape.org/) -->

<svg
   width="210mm"
   height="297mm"
   viewBox="0 0 210 297"
   version="1.1"
   id="svg1"
   inkscape:version="1.3.2 (1:1.3.2+202311252150+091e20ef0f)"
   sodipodi:docname="ondplan LOGO.svg"
   xmlns:inkscape="http://www.inkscape.org/namespaces/inkscape"
   xmlns:sodipodi="http://sodipodi.sourceforge.net/DTD/sodipodi-0.dtd"
   xmlns="http://www.w3.org/2000/svg"
   xmlns:svg="http://www.w3.org/2000/svg">
  <sodipodi:namedview
     id="namedview1"
     pagecolor="#ffffff"
     bordercolor="#000000"
     borderopacity="0.25"
     inkscape:showpageshadow="2"
     inkscape:pageopacity="0.0"
     inkscape:pagecheckerboard="0"
     inkscape:deskcolor="#d1d1d1"
     inkscape:document-units="mm"
     showguides="true"
     inkscape:zoom="1"
     inkscape:cx="308.5"
     inkscape:cy="362.5"
     inkscape:window-width="1549"
     inkscape:window-height="749"
     inkscape:window-x="1988"
     inkscape:window-y="437"
     inkscape:window-maximized="0"
     inkscape:current-layer="layer1">
    <sodipodi:guide
       position="130.27694,240.57571"
       orientation="0,-1"
       id="guide10"
       inkscape:locked="false" />
    <sodipodi:guide
       position="144.1981,202.89578"
       orientation="0,-1"
       id="guide11"
       inkscape:locked="false" />
  </sodipodi:namedview>
  <defs
     id="defs1" />
  <g
     inkscape:label="Capa 1"
     inkscape:groupmode="layer"
     id="layer1">
    <path
       id="path3"
       style="font-weight:bold;font-size:53.6633px;font-family:Ubuntu;-inkscape-font-specification:'Ubuntu Bold';fill:#e5e1da;fill-opacity:1;stroke-width:0.2"
       d="M 73.078871,56.453109 V 93.05148 c -1.71723,0.357755 -3.55967,0.608184 -5.52732,0.751286 -1.96765,0.178877 -3.72065,0.268316 -5.259,0.268316 -5.47365,0 -9.6415,-0.983827 -12.50355,-2.951481 -2.89782,-1.967655 -4.34673,-5.080126 -4.34673,-9.337414 0,-2.933594 0.66185,-5.330555 1.98555,-7.190882 1.32369,-1.824553 3.27346,-3.166135 5.8493,-4.024748 2.54006,-0.822837 5.63464,-1.234256 9.28375,-1.234256 h 3.16613 V 56.453109 Z m -7.35187,19.157798 h -3.05881 c -2.07498,0 -3.82798,0.178878 -5.259,0.536633 -1.4668,0.357755 -2.55795,0.983827 -3.27346,1.878216 -0.75129,0.894388 -1.12693,2.164419 -1.12693,3.810094 0,1.574123 0.37564,2.790491 1.12693,3.649104 0.75129,0.858613 1.80666,1.44891 3.16613,1.770889 1.3237,0.357755 2.84416,0.536633 4.56138,0.536633 0.75129,0 1.4668,-0.03577 2.14654,-0.107326 0.67973,-0.03577 1.25214,-0.07155 1.71722,-0.107327 z m 10.82276,18.524271 V 57.536807 c 1.71723,-0.357755 3.55967,-0.608184 5.52732,-0.751286 1.96766,-0.178877 3.72066,-0.268316 5.25901,-0.268316 5.47365,0 9.6415,0.983827 12.50355,2.951481 2.897809,1.967655 4.346719,5.080126 4.346719,9.337414 0,2.933594 -0.66185,5.330555 -1.98554,7.190882 -1.32369,1.824553 -3.273459,3.166135 -5.849299,4.024748 -2.54006,0.822837 -5.63464,1.234256 -9.28375,1.234256 h -3.16613 v 12.879192 z m 7.35188,-19.157798 h 3.0588 c 2.07499,0 3.82799,-0.178878 5.25901,-0.536633 1.46679,-0.357755 2.55795,-0.983827 3.27346,-1.878216 0.75129,-0.894388 1.12693,-2.164419 1.12693,-3.810094 0,-1.574123 -0.37564,-2.790491 -1.12693,-3.649104 -0.75129,-0.858613 -1.80667,-1.44891 -3.16614,-1.770889 -1.32369,-0.357755 -2.84415,-0.536633 -4.56138,-0.536633 -0.75129,0 -1.4668,0.03578 -2.14653,0.107326 -0.67973,0.03577 -1.25214,0.07155 -1.71722,0.107327 z"
       sodipodi:nodetypes="cccscsccsccccsccsscsccccccscsccsccccsccsscsccc"
       inkscape:export-filename="../odp/target/classes/com/images/odeplan_logo.png"
       inkscape:export-xdpi="96"
       inkscape:export-ydpi="96" />
    <path
       id="rect11"
       style="fill:#aad7d9;stroke-width:0.208923"
       d="m 80.355501,74.98207 h 3.564 l -0.0183,19.188903 h -3.564 z m 15.84385,19.135451 v -10.08162 c 0.47357,-0.132827 1.08526,-0.265653 1.83508,-0.39848 0.76297,-0.132827 1.58515,-0.19924 2.466519,-0.19924 1.15761,0 2.05213,0.205883 2.68356,0.61765 0.64459,0.39848 1.09185,0.956353 1.34179,1.67362 0.26309,0.717273 0.39464,1.55409 0.39464,2.51045 v 5.87762 h -2.56518 v -5.51899 c 0,-0.703987 -0.0658,-1.268503 -0.19732,-1.69355 -0.11839,-0.438333 -0.32229,-0.75048 -0.61169,-0.93644 -0.28941,-0.19924 -0.6972,-0.29886 -1.22339,-0.29886 -0.30256,0 -0.598539,0.01993 -0.887949,0.0598 -0.27625,0.0266 -0.49988,0.05317 -0.6709,0.0797 v 8.30837 z M 48.847031,56.452885 c -0.88137,0 -1.70355,0.06664 -2.46652,0.199471 -0.74982,0.132828 -1.36146,0.265598 -1.83503,0.398425 v 4.468978 0.810803 0.165882 h 0.003 c 0.0145,0.88695 0.14357,1.669431 0.39119,2.344559 0.24994,0.717269 0.69745,1.275317 1.34204,1.6738 0.63143,0.411766 1.52595,0.617533 2.68356,0.617533 0.88137,0 1.70355,-0.06613 2.46652,-0.198954 0.7498,-0.132828 1.36146,-0.265598 1.83503,-0.398425 v -4.038513 -0.976685 -0.2651 c 0,-0.956358 -0.13172,-1.793173 -0.39481,-2.510441 -0.24994,-0.717268 -0.69693,-1.2748 -1.34152,-1.673283 -0.63143,-0.411766 -1.52595,-0.61805 -2.68356,-0.61805 z m -0.17777,2.231905 c 0.52619,0 0.93429,0.09945 1.2237,0.29869 0.2894,0.185959 0.49294,0.498046 0.61133,0.936377 0.13152,0.425046 0.19741,0.98945 0.19741,1.693436 v 0.883151 2.264978 c -0.17102,0.02657 -0.39451,0.05301 -0.67076,0.07958 -0.28941,0.03985 -0.58524,0.05994 -0.8878,0.05994 -0.52619,0 -0.93429,-0.09945 -1.2237,-0.29869 -0.2894,-0.185959 -0.49294,-0.498046 -0.61133,-0.936377 -0.13152,-0.425045 -0.19741,-0.989968 -0.19741,-1.693953 V 61.519753 58.82431 c 0.17102,-0.02657 0.39451,-0.05353 0.67076,-0.0801 0.28941,-0.03985 0.58524,-0.05943 0.8878,-0.05943 z m 6.40031,8.44766 V 57.050834 c 0.47357,-0.132828 1.08526,-0.265656 1.83508,-0.398483 0.76297,-0.132828 1.58515,-0.199242 2.46652,-0.199242 1.15761,0 2.05213,0.205883 2.68356,0.617649 0.64459,0.398483 1.09185,0.956358 1.34179,1.673627 0.26309,0.71727 0.39464,1.554084 0.39464,2.510443 v 5.877622 h -2.56518 v -5.518987 c 0,-0.703987 -0.0658,-1.268504 -0.19732,-1.693552 -0.11839,-0.438331 -0.32229,-0.750477 -0.61169,-0.936436 -0.28941,-0.199241 -0.6972,-0.298861 -1.22339,-0.298861 -0.30256,0 -0.59854,0.01992 -0.88795,0.05977 -0.27625,0.02657 -0.49988,0.05313 -0.6709,0.0797 v 8.308368 z m 35.02574,16.305801 c -1.15761,0 -2.05213,0.20577 -2.68356,0.61753 -0.64459,0.39848 -1.09209,0.95653 -1.34203,1.6738 -0.0675,0.184 -0.12604,0.37594 -0.17622,0.57568 h 2.81275 c 0.0967,-0.13836 0.21042,-0.25166 0.34313,-0.33693 0.28941,-0.19924 0.69699,-0.29869 1.22318,-0.29869 0.30256,0 0.59891,0.0201 0.88832,0.0599 0.27625,0.0266 0.49974,0.053 0.67076,0.0796 v 1.84226 c -0.73213,-0.0706 -1.62281,-0.10645 -2.2655,-0.10645 -1.1576,0 -2.05212,0.20577 -2.68355,0.61753 -0.64459,0.39848 -1.11419,0.94064 -1.34204,1.6738 -0.22785,0.73316 -0.17714,1.688716 0,2.360166 0.17714,0.67145 0.69745,1.2748 1.34204,1.67328 0.63143,0.41177 1.52595,0.61805 2.68355,0.61805 0.88137,0 2.23272,-0.0666 2.99569,-0.19947 0.62054,-0.10992 1.14066,-0.21977 1.57199,-0.32969 h 0.26304 v -0.0687 -4.408106 -1.40767 -4.03799 c -0.47357,-0.13283 -1.08521,-0.26612 -1.83503,-0.39894 -0.76297,-0.13283 -1.58515,-0.19896 -2.46652,-0.19896 z m -0.35192,6.33811 c 0.30256,0 0.59891,0.0201 0.88832,0.0599 0.27625,0.0266 1.02891,0.053 1.19993,0.0796 v 2.201006 c -0.17102,0.0266 -0.92368,0.053 -1.19993,0.0796 -0.28941,0.0399 -0.58576,0.0594 -0.88832,0.0594 -0.52618,0 -0.93377,-0.0995 -1.22318,-0.29869 -0.24786,-0.15927 -0.555,-0.582964 -0.555,-0.948374 0,-0.36541 0.30723,-0.774062 0.555,-0.933272 0.28941,-0.19924 0.697,-0.2992 1.22318,-0.2992 z"
       sodipodi:nodetypes="ccccccccsccsccsccscccccccccccccsccccsccccsccscccsccscccsscccsccsccsccsccccscccccscccscsscsccccccccssccccscscss" />
    <rect
       style="fill:#aad7d9;fill-opacity:1;stroke-width:0.683325"
       id="rect12-3-5"
       width="91.166786"
       height="49.174015"
       x="-18.535622"
       y="101.19315" />
    <path
       id="path3-9"
       style="font-weight:bold;font-size:53.6633px;font-family:Ubuntu;-inkscape-font-specification:'Ubuntu Bold';fill:#e5e1da;fill-opacity:1;stroke-width:0.0384703"
       d="m 96.371027,137.41888 v 7.03975 c -0.330311,0.0688 -0.684707,0.11698 -1.063187,0.14451 -0.37848,0.0344 -0.715672,0.0516 -1.011575,0.0516 -1.052864,0 -1.854555,-0.18924 -2.405075,-0.56772 -0.557399,-0.37848 -0.836099,-0.97717 -0.836099,-1.79607 0,-0.56428 0.127308,-1.02534 0.381923,-1.38317 0.254614,-0.35096 0.629655,-0.60901 1.125121,-0.77417 0.488584,-0.15827 1.08383,-0.23741 1.785741,-0.23741 h 0.60901 v -2.47733 z m -1.414141,3.68503 H 94.36852 c -0.399126,0 -0.736317,0.0344 -1.011576,0.10322 -0.282141,0.0688 -0.492025,0.18924 -0.629654,0.36128 -0.144512,0.17204 -0.216767,0.41633 -0.216767,0.73287 0,0.30279 0.07225,0.53676 0.216767,0.70192 0.144511,0.16515 0.347513,0.2787 0.609009,0.34063 0.254615,0.0688 0.547078,0.10322 0.877387,0.10322 0.144512,0 0.282141,-0.007 0.41289,-0.0206 0.130747,-0.007 0.240851,-0.0138 0.33031,-0.0207 z m 2.081772,3.56317 v -7.03975 c 0.330311,-0.0688 0.684707,-0.11698 1.063187,-0.14451 0.378482,-0.0344 0.715674,-0.0516 1.011577,-0.0516 1.052868,0 1.854558,0.18924 2.405078,0.56772 0.55739,0.37848 0.83609,0.97717 0.83609,1.79607 0,0.56428 -0.12731,1.02534 -0.38192,1.38317 -0.25461,0.35096 -0.62965,0.60901 -1.12512,0.77417 -0.48858,0.15827 -1.083827,0.23741 -1.785739,0.23741 h -0.60901 v 2.47733 z m 1.414143,-3.68503 h 0.588365 c 0.399128,0 0.736319,-0.0344 1.011574,-0.10322 0.28214,-0.0688 0.49203,-0.18924 0.62966,-0.36128 0.14451,-0.17204 0.21676,-0.41633 0.21676,-0.73288 0,-0.30278 -0.0722,-0.53675 -0.21676,-0.70191 -0.14451,-0.16515 -0.34752,-0.2787 -0.60901,-0.34063 -0.254616,-0.0688 -0.547079,-0.10322 -0.877391,-0.10322 -0.144512,0 -0.282141,0.007 -0.412888,0.0206 -0.130747,0.007 -0.240851,0.0138 -0.33031,0.0207 z"
       sodipodi:nodetypes="cccscsccsccccsccsscsccccccscsccsccccsccsscsccc"
       inkscape:export-filename="../odp/src/main/resources/com/images/odeplan_logo_small.png"
       inkscape:export-xdpi="96"
       inkscape:export-ydpi="96" />
    <path
       id="rect11-9"
       style="font-variation-settings:normal;opacity:1;vector-effect:none;fill:#fbf9f1;fill-opacity:1;stroke-width:0.0384703;stroke-linecap:butt;stroke-linejoin:miter;stroke-miterlimit:4;stroke-dasharray:none;stroke-dashoffset:0;stroke-opacity:1;-inkscape-stroke:none;stop-color:#000000;stop-opacity:1"
       d="m 97.770697,140.98295 h 0.68554 l -0.0035,3.69101 h -0.68554 z m 3.047583,3.68073 v -1.93921 c 0.0911,-0.0256 0.20875,-0.0511 0.35298,-0.0767 0.14676,-0.0256 0.30491,-0.0383 0.47444,-0.0383 0.22267,0 0.39473,0.0396 0.51619,0.11881 0.12398,0.0767 0.21001,0.18396 0.25809,0.32192 0.0506,0.13797 0.0759,0.29894 0.0759,0.48289 v 1.13057 h -0.49342 v -1.06158 c 0,-0.13542 -0.0127,-0.244 -0.038,-0.32576 -0.0228,-0.0843 -0.062,-0.14436 -0.11766,-0.18013 -0.0557,-0.0383 -0.13411,-0.0575 -0.23532,-0.0575 -0.0582,0 -0.11513,0.004 -0.1708,0.0115 -0.0531,0.005 -0.0962,0.0102 -0.12905,0.0153 v 1.59813 z m -9.108279,-7.24484 c -0.169532,0 -0.32768,0.0128 -0.474438,0.0384 -0.144229,0.0256 -0.261879,0.0511 -0.35297,0.0766 v 0.85961 0.15596 0.0319 h 5.77e-4 c 0.0028,0.1706 0.02761,0.32111 0.07525,0.45097 0.04808,0.13797 0.134155,0.24531 0.258143,0.32196 0.121456,0.0792 0.293518,0.11879 0.516186,0.11879 0.169533,0 0.32768,-0.0127 0.474438,-0.0383 0.144225,-0.0255 0.261879,-0.0511 0.352971,-0.0766 v -0.77681 -0.18787 -0.051 c 0,-0.18396 -0.02534,-0.34492 -0.07594,-0.48289 -0.04808,-0.13797 -0.134055,-0.24521 -0.258043,-0.32186 -0.121456,-0.0792 -0.293518,-0.11888 -0.516186,-0.11888 z m -0.03419,0.42931 c 0.101213,0 0.179712,0.0191 0.23538,0.0574 0.05567,0.0358 0.09482,0.0958 0.11759,0.18012 0.0253,0.0817 0.03797,0.19032 0.03797,0.32573 v 0.16988 0.43567 c -0.0329,0.005 -0.07588,0.0102 -0.129022,0.0153 -0.05567,0.008 -0.112572,0.0115 -0.17077,0.0115 -0.101213,0 -0.179711,-0.0191 -0.23538,-0.0575 -0.05567,-0.0358 -0.09482,-0.0958 -0.11759,-0.18012 -0.0253,-0.0817 -0.03797,-0.19042 -0.03797,-0.32583 v -0.087 -0.51847 c 0.0329,-0.005 0.07588,-0.0103 0.129022,-0.0154 0.05567,-0.008 0.112571,-0.0114 0.170769,-0.0114 z m 1.231108,1.62492 v -1.93921 c 0.09109,-0.0256 0.208751,-0.0511 0.35298,-0.0767 0.146758,-0.0256 0.304906,-0.0383 0.474438,-0.0383 0.222668,0 0.39473,0.0396 0.516187,0.11881 0.123987,0.0767 0.210018,0.18395 0.258095,0.32192 0.0506,0.13797 0.07591,0.29893 0.07591,0.48289 v 1.13057 h -0.493415 v -1.06159 c 0,-0.13541 -0.01266,-0.24399 -0.03795,-0.32575 -0.02277,-0.0843 -0.06199,-0.14436 -0.11766,-0.18013 -0.05567,-0.0383 -0.134107,-0.0575 -0.23532,-0.0575 -0.0582,0 -0.11513,0.004 -0.170799,0.0115 -0.05314,0.005 -0.09615,0.0102 -0.129048,0.0153 v 1.59812 z m 6.737248,3.13644 c -0.22267,0 -0.394732,0.0396 -0.516187,0.11878 -0.123988,0.0767 -0.210065,0.18399 -0.258142,0.32196 -0.01298,0.0354 -0.02424,0.0723 -0.0339,0.11073 h 0.541037 c 0.0186,-0.0266 0.04048,-0.0484 0.066,-0.0648 0.05567,-0.0383 0.134067,-0.0574 0.23528,-0.0574 0.0582,0 0.115201,0.004 0.170868,0.0115 0.05314,0.005 0.09613,0.0102 0.129021,0.0153 v 0.35436 c -0.140826,-0.0136 -0.312149,-0.0205 -0.435772,-0.0205 -0.222665,0 -0.394727,0.0396 -0.516183,0.11878 -0.123988,0.0766 -0.214316,0.18093 -0.258143,0.32196 -0.04383,0.14102 -0.03407,0.32483 0,0.45398 0.03407,0.12915 0.134155,0.24521 0.258143,0.32186 0.121456,0.0792 0.293518,0.11888 0.516183,0.11888 0.169533,0 0.429467,-0.0128 0.576228,-0.0384 0.11936,-0.0211 0.21941,-0.0423 0.30237,-0.0634 h 0.0506 v -0.0132 -0.8479 -0.27077 -0.77671 c -0.0911,-0.0256 -0.20874,-0.0512 -0.35297,-0.0767 -0.146761,-0.0256 -0.304908,-0.0383 -0.474439,-0.0383 z m -0.06769,1.21914 c 0.0582,0 0.115201,0.004 0.170869,0.0115 0.05314,0.005 0.197912,0.0102 0.230808,0.0153 v 0.42336 c -0.0329,0.005 -0.177671,0.0102 -0.230808,0.0153 -0.05567,0.008 -0.112671,0.0114 -0.170869,0.0114 -0.101212,0 -0.179612,-0.0191 -0.235281,-0.0574 -0.04768,-0.0306 -0.106754,-0.11214 -0.106754,-0.18242 0,-0.0703 0.0591,-0.1489 0.106754,-0.17952 0.05567,-0.0383 0.134069,-0.0575 0.235281,-0.0575 z"
       sodipodi:nodetypes="ccccccccsccsccsccscccccccccccccsccccsccccsccscccsccscccsscccsccsccsccsccccscccccscccscsscsccccccccssccccscscss" />
    <rect
       style="fill:#92c7cf;fill-opacity:1;stroke-width:0.2"
       id="rect12"
       width="19.596954"
       height="19.596954"
       x="19.243626"
       y="24.614494" />
    <rect
       style="fill:#fbf9f1;fill-opacity:1;stroke-width:0.2"
       id="rect12-3-0"
       width="19.596954"
       height="19.596954"
       x="74.814316"
       y="24.614494" />
    <rect
       style="fill:#e5e1da;fill-opacity:1;stroke-width:0.2"
       id="rect12-3-0-3"
       width="19.596954"
       height="19.596954"
       x="103.75743"
       y="24.870832" />
  </g>
</svg>
